<?xml version="1.0" encoding="utf-8"?>
<!-- Generator: Adobe Illustrator 27.5.0, SVG Export Plug-In . SVG Version: 6.00 Build 0)  -->
<svg version="1.1" xmlns="http://www.w3.org/2000/svg" xmlns:xlink="http://www.w3.org/1999/xlink" x="0px" y="0px"
	 viewBox="0 0 500 500" style="enable-background:new 0 0 500 500;" xml:space="preserve">
<g id="BACKGROUND">
	<rect style="fill:#FFFFFF;" width="500" height="500"/>
</g>
<g id="OBJECTS">
	<path style="fill:#E0EBFC;" d="M53.188,470.361l389.967,0.056c0,0,13.121-16.859,16.863-35.374
		c5.474-27.087-2.534-50.342-16.863-73.412c-14.329-23.069-32.089-45.036-33.751-72.691c-1.254-20.873,0.714-46.041,4.772-66.5
		c8.076-40.71,10.422-80.671-3.789-120.106c-14.405-39.973-46.258-60.74-86.435-72.476c-22.699-6.63-46.852-5.291-68.755,3.731
		c-21.349,8.794-38.195,25.555-55.755,40.316c-26.882,22.596-55.514,30.878-89.212,36.503c-7.367,1.23-14.862,2.508-21.545,5.94
		c-11.151,5.727-19.026,17.267-21.728,29.822c-6.28,29.187,16.062,54.859,24.373,81.363c8.024,25.592-0.535,51.518-12.109,74.292
		c-9.82,19.321-27.932,33.331-37.285,53.374C4.949,434.458,53.188,470.361,53.188,470.361z"/>
	<g>
		<rect x="113.114" y="89.332" style="fill:#FFFFFF;" width="273.771" height="381.037"/>
		<g>
			<path style="fill:#C95050;" d="M148.119,110.773c2.267,0,4.153,0.276,5.657,0.829c1.504,0.553,2.634,1.375,3.393,2.469
				c0.757,1.094,1.136,2.456,1.136,4.085c0,1.014-0.171,1.937-0.513,2.769c-0.342,0.832-0.829,1.575-1.461,2.23
				c-0.632,0.655-1.387,1.228-2.264,1.717l7.28,10.886h-7.656l-5.298-9.092h-1.709v9.092h-6.751v-24.985H148.119z M148.017,115.883
				h-1.333v5.708h1.265c1.037,0,1.885-0.228,2.546-0.684c0.661-0.456,0.991-1.27,0.991-2.444c0-0.809-0.273-1.441-0.82-1.897
				C150.119,116.111,149.235,115.883,148.017,115.883z"/>
			<path style="fill:#C95050;" d="M178.454,135.758H163.62v-24.985h14.834v5.417h-8.083v3.931h7.485v5.417h-7.485v4.717h8.083
				V135.758z"/>
			<path style="fill:#C95050;" d="M182.829,135.758v-24.985h6.785v24.985H182.829z"/>
			<path style="fill:#C95050;" d="M205.045,121.129h10.784v13.467c-1.288,0.444-2.763,0.806-4.426,1.085
				c-1.664,0.279-3.407,0.419-5.23,0.419c-2.404,0-4.512-0.467-6.323-1.401c-1.812-0.934-3.225-2.355-4.238-4.264
				c-1.014-1.908-1.521-4.321-1.521-7.238c0-2.62,0.501-4.885,1.504-6.794c1.003-1.908,2.48-3.384,4.435-4.426
				c1.954-1.043,4.35-1.564,7.186-1.564c1.561,0,3.042,0.148,4.443,0.444c1.401,0.296,2.62,0.672,3.657,1.128l-2.136,5.298
				c-0.9-0.444-1.835-0.778-2.803-1c-0.969-0.223-2.011-0.333-3.127-0.333c-1.493,0-2.691,0.336-3.598,1.008
				c-0.905,0.672-1.563,1.57-1.974,2.691c-0.41,1.122-0.615,2.362-0.615,3.717c0,1.55,0.219,2.857,0.658,3.922
				c0.438,1.066,1.082,1.874,1.931,2.427c0.849,0.553,1.877,0.829,3.085,0.829c0.398,0,0.886-0.028,1.461-0.085
				c0.575-0.057,1.011-0.125,1.308-0.205v-3.914h-4.46V121.129z"/>
			<path style="fill:#C95050;" d="M244.711,135.758h-8.852l-9.126-17.603h-0.154c0.057,0.536,0.108,1.179,0.154,1.931
				c0.045,0.752,0.086,1.519,0.12,2.298c0.034,0.781,0.051,1.484,0.051,2.111v11.262h-5.981v-24.985h8.818l9.092,17.363h0.103
				c-0.034-0.547-0.068-1.182-0.103-1.905c-0.034-0.724-0.066-1.456-0.094-2.196c-0.029-0.74-0.043-1.396-0.043-1.965v-11.296h6.016
				V135.758z"/>
			<path style="fill:#C95050;" d="M265.441,135.758l-1.23-4.683h-8.117l-1.266,4.683h-7.417l8.153-25.088h9.006l8.254,25.088
				H265.441z M262.81,125.539l-1.078-4.102c-0.113-0.444-0.279-1.079-0.494-1.905c-0.217-0.826-0.432-1.681-0.643-2.563
				c-0.211-0.883-0.373-1.609-0.486-2.179c-0.102,0.57-0.248,1.273-0.436,2.111c-0.188,0.837-0.383,1.666-0.582,2.486
				c-0.199,0.82-0.373,1.504-0.52,2.051l-1.078,4.102H262.81z"/>
			<path style="fill:#C95050;" d="M286.546,135.758h-6.75v-19.465h-6.102v-5.52h18.936v5.52h-6.084V135.758z"/>
			<path style="fill:#C95050;" d="M296.203,135.758v-24.985h6.784v24.985H296.203z"/>
			<path style="fill:#C95050;" d="M331.766,123.231c0,1.926-0.23,3.677-0.692,5.255c-0.461,1.578-1.182,2.936-2.162,4.076
				c-0.979,1.14-2.238,2.014-3.776,2.624c-1.538,0.609-3.378,0.914-5.521,0.914c-2.096,0-3.91-0.305-5.442-0.914
				c-1.533-0.609-2.794-1.481-3.786-2.615c-0.99-1.133-1.726-2.492-2.204-4.076c-0.479-1.584-0.718-3.35-0.718-5.298
				c0-2.598,0.43-4.856,1.29-6.776c0.86-1.92,2.19-3.407,3.991-4.461c1.8-1.053,4.102-1.581,6.904-1.581
				c2.848,0,5.163,0.53,6.946,1.589c1.783,1.06,3.091,2.552,3.923,4.478C331.35,118.373,331.766,120.634,331.766,123.231z
				 M314.574,123.231c0,1.504,0.171,2.797,0.513,3.879c0.342,1.083,0.883,1.914,1.624,2.495c0.74,0.581,1.709,0.871,2.904,0.871
				c1.242,0,2.23-0.29,2.966-0.871c0.734-0.581,1.265-1.413,1.589-2.495c0.325-1.082,0.487-2.375,0.487-3.879
				c0-2.256-0.376-4.038-1.128-5.349c-0.752-1.31-2.045-1.965-3.879-1.965c-1.22,0-2.202,0.296-2.948,0.889
				c-0.747,0.593-1.288,1.436-1.624,2.529C314.742,120.429,314.574,121.728,314.574,123.231z"/>
			<path style="fill:#C95050;" d="M360.067,135.758h-8.853l-9.126-17.603h-0.153c0.057,0.536,0.107,1.179,0.153,1.931
				c0.045,0.752,0.085,1.519,0.12,2.298c0.033,0.781,0.051,1.484,0.051,2.111v11.262h-5.981v-24.985h8.818l9.092,17.363h0.103
				c-0.034-0.547-0.068-1.182-0.103-1.905c-0.034-0.724-0.065-1.456-0.094-2.196c-0.029-0.74-0.043-1.396-0.043-1.965v-11.296h6.016
				V135.758z"/>
		</g>
		<g>
			<g>
				<rect x="139.933" y="163.844" style="fill:#E8D9D1;" width="220.133" height="3.477"/>
			</g>
			<g>
				<rect x="139.933" y="191.404" style="fill:#E8D9D1;" width="220.133" height="3.477"/>
			</g>
			<g>
				<rect x="139.933" y="218.964" style="fill:#E8D9D1;" width="220.133" height="3.477"/>
			</g>
			<g>
				<rect x="139.791" y="246.523" style="fill:#E8D9D1;" width="168.605" height="3.477"/>
			</g>
		</g>
		<polyline style="fill:none;stroke:#6872F0;stroke-width:1.5;stroke-miterlimit:10;" points="317.812,89.332 113.114,89.332 
			113.114,152.48 		"/>
		
			<line style="fill:none;stroke:#6872F0;stroke-width:1.5;stroke-miterlimit:10;" x1="341.805" y1="89.332" x2="386.885" y2="89.332"/>
		
			<line style="fill:none;stroke:#6872F0;stroke-width:1.5;stroke-miterlimit:10;" x1="113.114" y1="177.056" x2="113.114" y2="470.368"/>
		
			<line style="fill:none;stroke:#6872F0;stroke-width:1.5;stroke-miterlimit:10;" x1="386.885" y1="142.275" x2="386.885" y2="281.356"/>
	</g>
	<g>
		<g>
			<path style="fill:none;stroke:#000000;stroke-width:1.5;stroke-miterlimit:10;" d="M94.835,293.46
				c4.446,2.1,6.084,8.35,6.701,13.502c0.617,5.152,0.194,97.444,0.746,102.604"/>
			<path style="fill:none;stroke:#000000;stroke-width:1.5;stroke-miterlimit:10;" d="M90.483,329.393c0,0,9.176-1.94,11.436,8.935"
				/>
			<path style="fill:none;stroke:#000000;stroke-width:1.5;stroke-miterlimit:10;" d="M92.999,339.767c0,0,7.487,0.726,8.931,16.384
				"/>
			<path style="fill:none;stroke:#000000;stroke-width:1.5;stroke-miterlimit:10;" d="M91.575,271.208c0,0,8.121,4.461,9.183,14.631
				c1.062,10.17,0.938,25.29,0.938,25.29"/>
			<path style="fill:none;stroke:#000000;stroke-width:1.5;stroke-miterlimit:10;" d="M99.422,280.482c0,0-1.439-10.95,2.098-15.174
				"/>
			<path style="fill:none;stroke:#000000;stroke-width:1.5;stroke-miterlimit:10;" d="M101.907,344.303c0,0,0.967-10.2,4.367-15.918
				"/>
			<path style="fill:none;stroke:#000000;stroke-width:1.5;stroke-miterlimit:10;" d="M101.938,361.554
				c0-1.626,1.215-6.267,6.182-5.717"/>
		</g>
		<g>
			<rect x="56.23" y="401.183" style="fill:#FFCA61;" width="88.909" height="24.423"/>
			<polygon style="fill:#FFCA61;" points="141.307,414.187 60.061,414.187 68.654,470.368 132.715,470.368 			"/>
			
				<line style="fill:none;stroke:#000000;stroke-width:1.5;stroke-miterlimit:10;" x1="61.882" y1="425.606" x2="139.578" y2="425.606"/>
		</g>
		<g>
			<path style="fill:#A7AA67;" d="M106.536,368.31c2.846,6.81,1.24,17.63-0.044,23.693c-1.58,7.466-3.834,15.758-9.093,20.851
				c-4.779,4.628-11.809,5.939-17.735,5.633c-5.204-0.269-10.639-2.245-12.796-8.328c-3.486-9.831,1.589-20.523,6.907-28.119
				c5.643-8.061,13.513-16.497,22.281-19.079c1.835-0.54,3.808-0.755,5.565,0.009C103.96,363.987,105.527,365.897,106.536,368.31z"
				/>
			<path style="fill:none;stroke:#000000;stroke-width:1.5;stroke-miterlimit:10;" d="M101.791,362.794
				c0,0-16.998,22.499-26.414,54.799"/>
		</g>
		<g>
			<path style="fill:#A7AA67;" d="M108.089,361.926c0.818,2.308,2.036,4.444,3.338,6.045c11.858,14.59,33.894,18.875,50.588,11.359
				c3.142-1.415,6.282-3.372,7.861-6.507c1.903-3.775,1.063-8.56-1.244-12.087c-2.307-3.528-5.863-5.984-9.529-7.943
				c-7.876-4.207-16.53-6.878-25.372-7.701c-7.398-0.688-18.182-1.135-24.03,4.519C106.435,352.769,106.572,357.644,108.089,361.926
				z"/>
			<path style="fill:none;stroke:#000000;stroke-width:1.5;stroke-miterlimit:10;" d="M106.901,355.836
				c1.18-0.08,33.152-1.679,63.315,15.398"/>
		</g>
		<g>
			<path style="fill:#84874E;" d="M139.062,317.134c3.083-2.938,5.679-6.181,7.51-9.486c9.604-17.339-18.099-16.762-27.038-12.83
				c-10.16,4.469-17.521,14.343-18.151,25.824c-0.328,5.976,3.895,8.813,9.353,9.049
				C120.257,330.106,131.229,324.601,139.062,317.134z"/>
			<path style="fill:none;stroke:#000000;stroke-width:1.5;stroke-miterlimit:10;" d="M105.948,328.961
				c0,0,12.322-24.426,35.261-35.399"/>
		</g>
		<g>
			<path style="fill:#84874E;" d="M65.263,343.579c-8.299,0.877-16.243,4.3-23.65,8.529c-4.564,2.605-9.075,5.623-12.294,9.977
				s-4.961,10.296-3.372,15.505c1.722,5.646,7.043,9.326,12.525,10.213c5.482,0.888,11.101-0.581,16.376-2.573
				c8.248-3.114,16.086-7.542,23.16-13.111c5.038-3.966,9.869-8.788,11.973-15.086c2.285-6.837-1.874-8.186-6.759-10.571
				C77.669,343.752,71.355,342.936,65.263,343.579z"/>
			<path style="fill:none;stroke:#000000;stroke-width:1.5;stroke-miterlimit:10;" d="M88.329,349.986
				c0,0-26.825-2.576-59.463,32.691"/>
		</g>
		<g>
			<path style="fill:#84874E;" d="M44.451,310.469c-4.189-0.199-8.479-0.33-12.462,1.419c-2.182,0.958-4.422,2.792-4.991,5.765
				c-0.47,2.453,0.364,5.093,1.684,6.911c1.319,1.817,3.063,2.96,4.788,4.008c13.793,8.379,29.63,12.943,44.155,7.181
				c3.26-1.293,8.88-5.587,6.834-11.337c-1.56-4.384-8.401-7.084-11.548-8.517C63.789,311.743,54.012,310.922,44.451,310.469z"/>
			<path style="fill:none;stroke:#000000;stroke-width:1.5;stroke-miterlimit:10;" d="M26.999,317.653
				c0,0,27.947-1.894,57.135,11.74"/>
		</g>
		<g>
			<path style="fill:#A7AA67;" d="M85.672,282.56c-3.552-1.946-7.983-2.228-12.273-2.02c-5.686,0.275-11.556,1.391-16.614,4.291
				c-2.286,1.31-4.462,3.086-5.435,5.406c-1.003,2.393-0.556,5.049,0.681,7.138c1.237,2.09,3.188,3.689,5.244,5.077
				c8.628,5.823,22.863,10.012,33.678,3.976C100.602,301.043,91.927,285.986,85.672,282.56z"/>
			<path style="fill:none;stroke:#000000;stroke-width:1.5;stroke-miterlimit:10;" d="M51.053,295.189c0,0,30.31-9.323,44.382-1.408
				"/>
		</g>
		<g>
			<path style="fill:#84874E;" d="M55.209,249.37c-0.751,1.845-0.651,3.941-0.212,5.885c1.146,5.08,4.455,9.427,8.324,12.87
				c3.517,3.13,7.561,5.653,11.905,7.428c3.284,1.342,6.883,2.264,10.36,1.579c3.477-0.685,6.759-3.318,7.322-6.853
				c0.569-3.575-1.63-6.97-3.964-9.717c-4.616-5.432-10.466-10.368-16.587-14.002C67.384,243.607,57.866,242.845,55.209,249.37z"/>
			<path style="fill:none;stroke:#000000;stroke-width:1.5;stroke-miterlimit:10;" d="M56.675,247.076
				c0,0,17.057,8.084,35.736,24.878"/>
		</g>
		<g>
			<path style="fill:#A7AA67;" d="M116.918,257.327c-0.849,1.058-1.736,2.086-2.663,3.074c-3.048,3.251-9.257,9.237-14.516,6.31
				c-1.484-0.826-2.385-2.297-3.058-3.758c-4.419-9.588-1.584-20.693,3.66-29.797c2.339-4.062,5.239-7.992,9.375-10.596
				c4.667-2.939,15.101-2.833,17.251,3.552c2.522,7.49-0.075,15.432-3.883,22.067C121.277,251.327,119.238,254.438,116.918,257.327z
				"/>
			<path style="fill:none;stroke:#000000;stroke-width:1.5;stroke-miterlimit:10;" d="M120.141,220.979
				c0,0-11.718,19.433-19.857,46.515"/>
		</g>
		<g>
			<path style="fill:#A7AA67;" d="M56.95,347.211c-1.55,5.413-2.348,12.066,1.123,16.177c1.94,2.297,4.867,3.246,7.673,3.231
				c8.72-0.046,17.602-4.395,23.278-12.194c4.631-6.362,11.674-19.448,5.214-26.945c-3.025-3.51-9.637-6.024-13.99-5.849
				C68.5,322.101,60.176,335.946,56.95,347.211z"/>
			<path style="fill:none;stroke:#000000;stroke-width:1.5;stroke-miterlimit:10;" d="M61.189,365.575
				c0,0,5.027-23.457,27.844-41.943"/>
		</g>
	</g>
	<g>
		<g>
			<g>
				<path style="fill:#84874E;" d="M424.573,308.484c-7.758,0-14.683,19.522-17.314,32.432c-3.45,16.93-0.857,37.017,2.679,53.927
					l3.8,0.492c6.948-13.537,13.948-27.314,17.111-42.378C434.012,337.893,432.331,308.484,424.573,308.484z"/>
				<path style="fill:none;stroke:#000000;stroke-miterlimit:10;" d="M424.573,308.484c-7.758,22.725-11.036,46.239-12.674,86.212"
					/>
			</g>
			<g>
				<path style="fill:#84874E;" d="M456.208,333.023c-7.322-2.187-19.653,9.927-26.196,19.072
					c-8.581,11.992-12.798,28.989-14.78,42.935l3.432,1.448c10.815-8.408,19.145-16.969,26.869-27.613
					C453.256,358.221,463.53,335.21,456.208,333.023z"/>
				<path style="fill:none;stroke:#000000;stroke-miterlimit:10;" d="M456.208,333.023c-18.373,19.379-25.498,30.282-39.08,62.447"
					/>
			</g>
			<g>
				<path style="fill:#A7AA67;" d="M411.62,397.45c7.811-6.339,15.836-12.704,25.467-16.839c9.631-4.136,21.241-5.815,31.261-2.417
					c2.02,0.685,4.056,1.652,5.104,3.276c1.091,1.69,0.881,3.845-0.174,5.552c-1.054,1.707-2.854,3.007-4.815,3.968
					c-5.24,2.567-11.523,2.885-17.54,3.374c-12.77,1.036-25.424,3.111-37.734,6.189"/>
				<path style="fill:none;stroke:#000000;stroke-miterlimit:10;" d="M412.667,398.697c0,0,35.932-20.479,61.507-14.69"/>
			</g>
			<g>
				<path style="fill:#A7AA67;" d="M409.283,381.694c1.912-9.873,3.719-19.925,2.192-29.846c-1.527-9.921-6.857-19.859-16.573-25.47
					c-1.958-1.131-4.225-2.102-6.58-1.913c-2.451,0.197-4.597,1.677-5.754,3.53c-1.156,1.853-1.428,4.029-1.242,6.123
					c0.496,5.592,4.004,10.609,7.17,15.525c6.719,10.434,12.27,21.415,16.552,32.745"/>
				<path style="fill:none;stroke:#000000;stroke-miterlimit:10;" d="M407.326,381.654c0,0-0.369-40.104-22.124-56.189"/>
			</g>
			<path style="fill:none;stroke:#000000;stroke-miterlimit:10;" d="M431.332,350.313c0,0-10.963,12.96-15.524,40.977"/>
		</g>
		<g>
			<polygon style="fill:#F89648;" points="283.451,379.317 289.126,375.306 336.078,437.514 330.403,441.525 			"/>
			<line style="fill:none;stroke:#AF6A3A;stroke-miterlimit:10;" x1="331.695" y1="440.612" x2="284.743" y2="378.404"/>
			<line style="fill:none;stroke:#AF6A3A;stroke-miterlimit:10;" x1="334.38" y1="438.714" x2="287.428" y2="376.506"/>
			<path style="fill:#EDC98E;" d="M289.126,375.306l-5.42-2.22c-0.384-0.157-0.83,0.158-0.792,0.56l0.537,5.672L289.126,375.306z"/>
			<path style="fill:#2C2C2C;" d="M285.989,374.021l-2.283-0.935c-0.384-0.157-0.83,0.158-0.792,0.56l0.226,2.389L285.989,374.021z"
				/>
		</g>
		<g>
			<g>
				<path style="fill:#EA7E53;" d="M337.534,376.709l4.34,4.158c11.749-12.263,22.392-24.566,23.566-40.201
					c0.884-11.769-4.314-23.631-13.565-30.96l-3.731,4.712c7.589,6.012,12.028,16.14,11.303,25.798
					C358.421,353.865,348.496,365.266,337.534,376.709z"/>
			</g>
			<path style="fill:#F7EC97;" d="M342.852,298.432c-5.061-2.745-11.389-0.868-14.134,4.193c-2.745,5.061-0.868,11.389,4.193,14.134
				c5.061,2.745,11.389,0.868,14.134-4.193C349.79,307.506,347.913,301.178,342.852,298.432z"/>
			<path style="fill:#EA7E53;" d="M352.742,297.911c0.06,2.421-0.433,4.699,0.461,7.332c0.244,0.719,0.599,1.477,1.053,2.242
				c2.15,3.618,2.682,7.091,1.275,9.685l0,0c-1.407,2.594-4.609,4.042-8.814,4.212c-0.889,0.036-1.718,0.152-2.454,0.34
				c-2.695,0.687-4.335,2.342-6.398,3.612c-2.655,1.634-7.281,2.469-12.252,0.391l20.775-38.298
				C350.842,290.462,352.665,294.794,352.742,297.911z"/>
			<line style="fill:none;stroke:#824C3C;stroke-miterlimit:10;" x1="329.576" y1="326.815" x2="349.463" y2="290.154"/>
			<line style="fill:none;stroke:#824C3C;stroke-miterlimit:10;" x1="356.665" y1="314.311" x2="353.205" y2="319.616"/>
			<line style="fill:none;stroke:#824C3C;stroke-miterlimit:10;" x1="355.821" y1="323.706" x2="361.126" y2="320.793"/>
			<line style="fill:none;stroke:#824C3C;stroke-miterlimit:10;" x1="358.984" y1="332.582" x2="364.902" y2="331.411"/>
			<line style="fill:none;stroke:#824C3C;stroke-miterlimit:10;" x1="359.131" y1="342.877" x2="365.02" y2="344.098"/>
			<line style="fill:none;stroke:#824C3C;stroke-miterlimit:10;" x1="355.916" y1="352.848" x2="361.285" y2="355.59"/>
			<line style="fill:none;stroke:#824C3C;stroke-miterlimit:10;" x1="351.061" y1="360.97" x2="356.072" y2="364.311"/>
			<line style="fill:none;stroke:#824C3C;stroke-miterlimit:10;" x1="345.604" y1="367.905" x2="350.257" y2="371.716"/>
			<line style="fill:none;stroke:#824C3C;stroke-miterlimit:10;" x1="339.15" y1="375.014" x2="343.443" y2="379.22"/>
		</g>
		<g>
			
				<rect x="270.872" y="376.147" transform="matrix(-0.4107 -0.9118 0.9118 -0.4107 82.8254 821.8392)" style="fill:#A6BFF7;" width="72.256" height="16.012"/>
			
				<line style="fill:none;stroke:#000000;stroke-width:0.75;stroke-miterlimit:10;" x1="313.208" y1="417.324" x2="322.269" y2="413.242"/>
			
				<line style="fill:none;stroke:#000000;stroke-width:0.75;stroke-miterlimit:10;" x1="311.488" y1="413.611" x2="316.146" y2="411.512"/>
			
				<line style="fill:none;stroke:#000000;stroke-width:0.75;stroke-miterlimit:10;" x1="309.807" y1="409.879" x2="314.465" y2="407.781"/>
			
				<line style="fill:none;stroke:#000000;stroke-width:0.75;stroke-miterlimit:10;" x1="308.126" y1="406.148" x2="312.785" y2="404.05"/>
			
				<line style="fill:none;stroke:#000000;stroke-width:0.75;stroke-miterlimit:10;" x1="306.486" y1="402.399" x2="315.546" y2="398.318"/>
			
				<line style="fill:none;stroke:#000000;stroke-width:0.75;stroke-miterlimit:10;" x1="304.765" y1="398.686" x2="309.423" y2="396.588"/>
			
				<line style="fill:none;stroke:#000000;stroke-width:0.75;stroke-miterlimit:10;" x1="303.085" y1="394.955" x2="307.743" y2="392.857"/>
			
				<line style="fill:none;stroke:#000000;stroke-width:0.75;stroke-miterlimit:10;" x1="301.404" y1="391.224" x2="306.062" y2="389.125"/>
			
				<line style="fill:none;stroke:#000000;stroke-width:0.75;stroke-miterlimit:10;" x1="299.763" y1="387.475" x2="308.824" y2="383.393"/>
			
				<line style="fill:none;stroke:#000000;stroke-width:0.75;stroke-miterlimit:10;" x1="298.042" y1="383.761" x2="302.701" y2="381.663"/>
			
				<line style="fill:none;stroke:#000000;stroke-width:0.75;stroke-miterlimit:10;" x1="296.362" y1="380.03" x2="301.02" y2="377.932"/>
			
				<line style="fill:none;stroke:#000000;stroke-width:0.75;stroke-miterlimit:10;" x1="294.681" y1="376.299" x2="299.339" y2="374.201"/>
			
				<line style="fill:none;stroke:#000000;stroke-width:0.75;stroke-miterlimit:10;" x1="293.04" y1="372.55" x2="302.101" y2="368.469"/>
			
				<line style="fill:none;stroke:#000000;stroke-width:0.75;stroke-miterlimit:10;" x1="291.32" y1="368.837" x2="295.978" y2="366.738"/>
			
				<line style="fill:none;stroke:#000000;stroke-width:0.75;stroke-miterlimit:10;" x1="289.639" y1="365.106" x2="294.297" y2="363.007"/>
			
				<line style="fill:none;stroke:#000000;stroke-width:0.75;stroke-miterlimit:10;" x1="287.958" y1="361.375" x2="292.617" y2="359.276"/>
			
				<line style="fill:none;stroke:#000000;stroke-width:0.75;stroke-miterlimit:10;" x1="286.158" y1="357.698" x2="295.219" y2="353.616"/>
		</g>
		<g>
			<path style="fill:#617481;" d="M336.713,392.923l2.44-0.829c0.473-0.16,0.986,0.093,1.147,0.565l1.11,3.268
				c0.161,0.473-0.093,0.986-0.565,1.147l-2.44,0.829c-0.473,0.161-0.986-0.092-1.147-0.565l-1.11-3.268
				C335.987,393.597,336.24,393.084,336.713,392.923z"/>
			
				<rect x="326.44" y="339.807" transform="matrix(-0.9469 0.3216 -0.3216 -0.9469 759.6024 609.6169)" style="fill:#617481;" width="6.028" height="55.471"/>
			
				<line style="fill:none;stroke:#000000;stroke-width:0.75;stroke-miterlimit:10;" x1="340.444" y1="393.084" x2="336.292" y2="394.494"/>
			
				<line style="fill:none;stroke:#000000;stroke-width:0.75;stroke-miterlimit:10;" x1="337.039" y1="380.505" x2="331.332" y2="382.444"/>
			<path d="M322.942,340.462l-3.031-2.503c-0.297-0.245-0.817-0.068-0.903,0.307l-0.88,3.832L322.942,340.462z"/>
		</g>
		<g>
			<path style="fill:#617481;" d="M335.093,342.506l-2.556,0.33c-0.495,0.064-0.948-0.286-1.012-0.781l-0.441-3.423
				c-0.064-0.495,0.286-0.948,0.781-1.012l2.556-0.33c0.495-0.064,0.948,0.286,1.012,0.781l0.441,3.423
				C335.937,341.989,335.588,342.442,335.093,342.506z"/>
			
				<rect x="334.173" y="341.085" transform="matrix(0.9918 -0.1279 0.1279 0.9918 -44.3967 46.1479)" style="fill:#617481;" width="6.028" height="55.471"/>
			
				<line style="fill:none;stroke:#000000;stroke-width:0.75;stroke-miterlimit:10;" x1="331.467" y1="341.61" x2="335.816" y2="341.049"/>
			
				<line style="fill:none;stroke:#000000;stroke-width:0.75;stroke-miterlimit:10;" x1="332.316" y1="354.614" x2="338.294" y2="353.843"/>
			<path d="M338.212,396.654l2.476,3.054c0.242,0.299,0.787,0.229,0.946-0.122l1.621-3.582L338.212,396.654z"/>
		</g>
		<g>
			<polygon style="fill:#AA5050;" points="431.51,432.78 415.164,429.232 428.603,358.132 444.95,361.68 			"/>
			<polygon style="fill:#C66A6A;" points="433.597,406.46 424.393,404.463 431.96,364.433 441.163,366.43 			"/>
		</g>
		<g>
			<polygon style="fill:#90AAF4;" points="415.717,429.461 395.087,425.044 408.461,353.065 429.09,357.481 			"/>
			<polygon style="fill:#A6BFF7;" points="417.052,402.676 405.438,400.189 412.967,359.664 424.581,362.15 			"/>
		</g>
		<g>
			<polygon style="fill:#5669AF;" points="399.834,406.657 353.764,401.899 369.497,344.762 415.568,349.52 			"/>
			<polygon style="fill:#FFFFFF;" points="397.426,403.074 357.957,398.998 372.3,346.91 411.769,350.987 			"/>
			<path style="fill:#EA5E5E;" d="M399.184,345.944l-11.305-1.167c-1.376-0.142-2.778,0.783-3.132,2.066
				c-0.353,1.283,0.476,2.439,1.852,2.581l11.305,1.168c1.376,0.142,2.779-0.783,3.132-2.066
				C401.389,347.241,400.56,346.086,399.184,345.944z"/>
			
				<line style="fill:none;stroke:#DDE3ED;stroke-width:2;stroke-miterlimit:10;" x1="378.621" y1="353.424" x2="402.31" y2="355.871"/>
			
				<line style="fill:none;stroke:#DDE3ED;stroke-width:2;stroke-miterlimit:10;" x1="372.811" y1="358.075" x2="405.308" y2="361.431"/>
			
				<line style="fill:none;stroke:#DDE3ED;stroke-width:2;stroke-miterlimit:10;" x1="371.254" y1="363.73" x2="403.75" y2="367.086"/>
			
				<line style="fill:none;stroke:#DDE3ED;stroke-width:2;stroke-miterlimit:10;" x1="369.697" y1="369.386" x2="402.193" y2="372.742"/>
			
				<line style="fill:none;stroke:#DDE3ED;stroke-width:2;stroke-miterlimit:10;" x1="368.139" y1="375.041" x2="400.636" y2="378.397"/>
			
				<line style="fill:none;stroke:#DDE3ED;stroke-width:2;stroke-miterlimit:10;" x1="366.582" y1="380.697" x2="399.078" y2="384.053"/>
			
				<line style="fill:none;stroke:#DDE3ED;stroke-width:2;stroke-miterlimit:10;" x1="365.025" y1="386.352" x2="397.521" y2="389.708"/>
			
				<line style="fill:none;stroke:#DDE3ED;stroke-width:2;stroke-miterlimit:10;" x1="363.467" y1="392.008" x2="395.964" y2="395.364"/>
		</g>
		<g>
			<polygon style="fill:#F89648;" points="430.734,372.097 435.866,376.784 381.459,440.208 376.328,435.521 			"/>
			<line style="fill:none;stroke:#AF6A3A;stroke-miterlimit:10;" x1="377.496" y1="436.589" x2="431.903" y2="373.164"/>
			<line style="fill:none;stroke:#AF6A3A;stroke-miterlimit:10;" x1="379.924" y1="438.806" x2="434.33" y2="375.381"/>
			<path style="fill:#EDC98E;" d="M435.866,376.784l1.243-6.04c0.088-0.428-0.315-0.796-0.716-0.654l-5.659,2.007L435.866,376.784z"
				/>
			<path style="fill:#2C2C2C;" d="M436.586,373.288l0.524-2.544c0.088-0.428-0.315-0.796-0.716-0.654l-2.383,0.845L436.586,373.288z
				"/>
		</g>
		<g>
			<polygon style="fill:#FFCA61;" points="395.168,411.85 359.905,415.659 343.232,360.018 378.495,356.209 			"/>
			<polygon style="fill:#FFFFFF;" points="393.036,412.027 357.499,415.919 340.825,360.278 376.363,356.386 			"/>
			<polygon style="fill:#FFCA61;" points="387.601,412.668 352.337,416.477 335.664,360.835 370.927,357.026 			"/>
			<line style="fill:none;stroke:#000000;stroke-miterlimit:10;" x1="367.992" y1="357.343" x2="384.666" y2="412.985"/>
			<line style="fill:none;stroke:#000000;stroke-miterlimit:10;" x1="347.132" y1="363.58" x2="358.441" y2="362.358"/>
			<line style="fill:none;stroke:#E8D9D1;stroke-miterlimit:10;" x1="372.926" y1="356.698" x2="389.599" y2="412.339"/>
			<line style="fill:none;stroke:#E8D9D1;stroke-miterlimit:10;" x1="374.803" y1="356.469" x2="391.476" y2="412.11"/>
		</g>
		<g>
			<g>
				<g>
					
						<line style="fill:none;stroke:#1A1A1A;stroke-width:5;stroke-miterlimit:10;" x1="324.38" y1="378.789" x2="320.176" y2="373.838"/>
					<path style="fill:#9D88D3;" d="M327.001,368.444l-13.119,11.139c-3.076-3.623-2.633-9.053,0.99-12.129
						C318.494,364.378,323.925,364.821,327.001,368.444z"/>
				</g>
				<g>
					
						<line style="fill:none;stroke:#1A1A1A;stroke-width:5;stroke-miterlimit:10;" x1="355.196" y1="381.001" x2="360.064" y2="376.701"/>
					<path style="fill:#9D88D3;" d="M354.119,370.39l11.393,12.899c3.562-3.146,3.899-8.584,0.753-12.146
						C363.119,367.581,357.681,367.244,354.119,370.39z"/>
				</g>
			</g>
			
				<ellipse transform="matrix(0.7834 -0.6216 0.6216 0.7834 -172.3757 296.1522)" style="fill:#9D88D3;" cx="338.677" cy="395.369" rx="23.277" ry="23.277"/>
			
				<ellipse transform="matrix(0.7683 -0.64 0.64 0.7683 -174.5956 308.3629)" style="fill:#FFFFFF;" cx="338.677" cy="395.369" rx="19.619" ry="19.619"/>
			<path style="fill:#FFA8B0;" d="M341.98,395.606c-0.131,1.824-1.716,3.197-3.54,3.066c-1.824-0.131-3.197-1.716-3.066-3.54
				c0.131-1.824,1.716-3.197,3.54-3.066S342.111,393.782,341.98,395.606z"/>
			<g>
				<line style="fill:none;stroke:#1A1A1A;stroke-miterlimit:10;" x1="339.918" y1="378.084" x2="339.641" y2="381.937"/>
				<line style="fill:none;stroke:#1A1A1A;stroke-miterlimit:10;" x1="337.713" y1="408.802" x2="337.436" y2="412.655"/>
				<line style="fill:none;stroke:#1A1A1A;stroke-miterlimit:10;" x1="355.963" y1="396.61" x2="352.11" y2="396.334"/>
				<line style="fill:none;stroke:#1A1A1A;stroke-miterlimit:10;" x1="325.245" y1="394.405" x2="321.392" y2="394.129"/>
			</g>
		</g>
		<g>
			<polygon style="fill:#BF7D51;" points="456.636,432.78 359.173,432.78 343.897,400.19 441.36,400.19 			"/>
			<rect x="343.897" y="400.19" style="fill:#D39466;" width="97.463" height="70.178"/>
			<polygon style="fill:none;stroke:#A56346;stroke-miterlimit:10;" points="372.528,460.011 352.324,464.658 349.724,454.047 
				369.929,449.4 			"/>
			<polygon style="fill:#BC835C;" points="390.182,446.682 364.036,443.994 364.811,436.986 390.957,439.674 			"/>
			
				<rect x="297.751" y="400.19" transform="matrix(-1 -1.224647e-16 1.224647e-16 -1 641.6484 870.5581)" style="fill:#EAB081;" width="46.146" height="70.178"/>
			<polygon style="fill:#F4C290;" points="280.148,432.78 326.294,432.78 343.897,400.19 297.751,400.19 			"/>
			<line style="fill:none;stroke:#000000;stroke-miterlimit:10;" x1="343.897" y1="400.19" x2="343.897" y2="470.368"/>
			<g>
				<polygon style="fill:none;stroke:#A56346;stroke-miterlimit:10;" points="335.593,459.865 315.399,455.171 317.721,444.496 
					337.915,449.19 				"/>
				<line style="fill:none;stroke:#A56346;stroke-miterlimit:10;" x1="320.623" y1="448.786" x2="334.124" y2="451.924"/>
				<line style="fill:none;stroke:#A56346;stroke-miterlimit:10;" x1="319.859" y1="451.924" x2="330.875" y2="454.484"/>
			</g>
		</g>
		<g>
			<path style="fill:#E8C8BA;" d="M393.543,400.19h17.218c-0.598-3.481-8.457-4.253-10.616-4.4
				C398.082,395.648,396.26,396.224,393.543,400.19z"/>
			<path style="fill:#FFFFFF;" d="M451.42,408.943c-2.212-6.168-6.341-12.745-12.38-13.157c-0.269-0.018-0.53-0.015-0.787,0h-38.107
				c0,0,2.49,0.034,4.56,1.626c3.23,2.484,6.219,7.067,7.82,11.531c1.628,4.539,2.651,9.52,3.382,14.378h38.895
				C454.07,418.463,453.048,413.482,451.42,408.943z"/>
			<line style="fill:none;stroke:#E8D9D1;stroke-miterlimit:10;" x1="419.817" y1="417.318" x2="450.259" y2="417.318"/>
			<line style="fill:none;stroke:#E8D9D1;stroke-miterlimit:10;" x1="418.898" y1="412.11" x2="449.34" y2="412.11"/>
			<line style="fill:none;stroke:#E8D9D1;stroke-miterlimit:10;" x1="416.688" y1="407.111" x2="447.13" y2="407.111"/>
			<line style="fill:none;stroke:#E8D9D1;stroke-miterlimit:10;" x1="413.869" y1="403.074" x2="444.311" y2="403.074"/>
			<line style="fill:none;stroke:#E8D9D1;stroke-miterlimit:10;" x1="411.434" y1="399.781" x2="441.875" y2="399.781"/>
			<line style="fill:none;stroke:#E8D9D1;stroke-miterlimit:10;" x1="408.129" y1="397.515" x2="438.571" y2="397.515"/>
		</g>
	</g>
	<g>
		<g>
			<g>
				<polygon style="fill:#EF967B;" points="148.524,440.714 147.187,457.715 173.912,457.715 177.134,440.714 				"/>
				<path style="fill:#2D2B3F;" d="M159.359,467.743h6.908c1.192,0,2.356,0.374,3.336,1.073l2.177,1.552h21.976
					c0,0-1.254-4.348-6.308-7.203c-3.93-2.221-10.704-2.969-12.569-8.789h-28.371l-1.881,15.992h14.339L159.359,467.743z"/>
				<line style="fill:none;stroke:#000000;stroke-miterlimit:10;" x1="144.989" y1="467.743" x2="192.171" y2="467.743"/>
			</g>
			<path style="fill:#5669AF;" d="M159.159,282.811c0,0-3.285,16.661-2.293,26.981c1.499,15.589-0.4,59.085-0.4,59.085
				l-10.851,81.292h36.632c0,0,9.443-58.255,10.741-71.246c1.298-12.991,2.006-25.167,3.18-46.9c1.06-19.626,0-45.881,0-45.881"/>
			<line style="fill:none;stroke:#45528C;stroke-miterlimit:10;" x1="183.399" y1="440.714" x2="147.187" y2="440.714"/>
			<path style="fill:none;stroke:#45528C;stroke-miterlimit:10;" d="M177.134,450.168c0,0,10.796-64.824,12.061-78.968
				c1.264-14.143,2.168-60.875,2.168-60.875"/>
			<g>
				<polygon style="fill:#EF967B;" points="218.698,440.714 220.864,457.715 249.882,457.715 248.167,440.714 				"/>
				<path style="fill:#2D2B3F;" d="M233.803,467.743h7.153c1.235,0,2.44,0.374,3.454,1.073l2.254,1.552h22.756
					c0,0-1.298-4.348-6.532-7.203c-4.07-2.221-11.083-2.969-13.015-8.789h-30.043v15.992h13.566L233.803,467.743z"/>
				<line style="fill:none;stroke:#000000;stroke-miterlimit:10;" x1="219.829" y1="467.743" x2="267.78" y2="467.743"/>
			</g>
			<path style="fill:#5669AF;" d="M218.765,282.811l2.207,11.418c0,0,14.046,45.268,16.584,59.479
				c2.538,14.211,12.326,96.461,12.326,96.461h-37.187l-10.335-87.381l-20.131-51.067c0,0-10.977-16.996-4.624-34.388"/>
			<path style="fill:none;stroke:#000000;stroke-miterlimit:10;" d="M195.281,344.94l-12.236-32.32c0,0-5.638-7.083-7.419-14.712"/>
			<path style="fill:none;stroke:#45528C;stroke-miterlimit:10;" d="M211.353,281.042c0,0,0.559,11.358,1.401,14.289
				s14.301,45.012,16.544,54.014c2.243,9.002,4.195,24.286,6.586,43.71c2.083,16.923,7.075,57.113,7.075,57.113"/>
			<line style="fill:none;stroke:#45528C;stroke-miterlimit:10;" x1="248.749" y1="440.714" x2="211.644" y2="440.714"/>
			<path style="fill:none;stroke:#000000;stroke-miterlimit:10;" d="M235.857,366.217c-1.128,7.526-3.112,14.916-5.9,21.972"/>
			<path style="fill:none;stroke:#000000;stroke-miterlimit:10;" d="M225.53,377.056c1.244-2.366,2.291-4.841,3.127-7.389"/>
			<path style="fill:none;stroke:#000000;stroke-miterlimit:10;" d="M181.35,393.3c3.56-3.993,6.714-8.369,9.393-13.032"/>
		</g>
		<g>
			<path style="fill:#EF967B;" d="M167.14,181.821l1.744,12.048l-2.318,7.429c0,0,6.723,3.367,14.347,3.535
				c7.624,0.168,12.133-3.872,12.133-3.872l1.722-18.264L167.14,181.821z"/>
			<path style="fill:#EF967B;" d="M200.274,184.206c-0.166-2.033-1.246-4.732-1.855-6.581c1.34-0.643,2.561-1.273,1.374-2.919
				c-0.758-1.051-3.384-3.343-4.372-4.489c-0.904-1.941-1.862-3.855-2.822-5.737c-1.508-2.956-3.846-6.022-7.463-5.658
				c-4.069,0.411-8.084,1.967-11.139,4.756c-3.055,2.79-5.069,6.864-5.055,11.062c0.009,2.828,0.904,5.577,2.003,8.171
				c0.948,2.235,2.076,4.43,3.705,6.204c5.125,5.579,17.523,7.693,23.299,2.667C200.655,189.327,200.537,187.428,200.274,184.206z"
				/>
			<path style="fill:#6B3429;" d="M200.394,153.532c-0.6-1.357-2.164-1.987-3.613-2.077c-1.655-0.103-3.338,0.335-4.744,1.237
				c0.602-1.59,1.027-3.67-0.239-4.774c-0.789-0.688-1.942-0.683-2.963-0.509c-3.01,0.512-5.813,2.217-7.697,4.682
				c-0.409-1.073,0.238-2.513-0.558-3.326c-0.445-0.454-1.152-0.471-1.774-0.388c-1.713,0.229-3.313,0.987-4.841,1.814
				c-0.92,0.498-1.867,0.956-2.586,1.705c-0.857,0.892-1.693,1.797-2.592,2.649c-1.799,1.707-3.675,3.329-5.419,5.098
				c-2.65,2.689-5.04,5.821-6.012,9.514c-1.234,4.687-0.018,9.756,2.216,14.035c2.219,4.25,5.44,7.945,9.31,10.678l4.684-15.592
				c2.184-1,3.703-3.19,4.367-5.549c0.663-2.358,0.559-4.877,0.189-7.303c2.78-0.031,6.742-0.12,9.943-1.067
				c2.837-0.839,2.907-2.514,2.907-2.514s1.625,2.635,2.62,4.461c2.801-2.361,5.031-5.432,6.436-8.862
				C200.54,156.199,200.937,154.76,200.394,153.532z"/>
			<g>
				<path style="fill:#EF967B;" d="M177.732,179.665c-1.271-1.927-3.674-2.683-5.163-2.057c-2.208,0.929-2.777,3.633-2.393,5.799
					c0.35,1.974,1.151,3.571,2.642,4.962c1.4,1.307,3.957,2.485,5.708,1.679c1.192-0.549,1.524-2.301,1.365-3.488"/>
				<line style="fill:none;stroke:#000000;stroke-miterlimit:10;" x1="178.393" y1="185.171" x2="172.32" y2="181.821"/>
				<path style="fill:none;stroke:#000000;stroke-miterlimit:10;" d="M180.061,187.041c-0.1,0.693-0.331,2.988-2.404,3.302
					c-0.942,0.143-2.896,0.173-5.512-2.672"/>
				<path style="fill:none;stroke:#000000;stroke-miterlimit:10;" d="M177.852,179.51c-0.594-0.635-2.842-3.198-6.057-1.458"/>
			</g>
			<path style="fill:none;stroke:#000000;stroke-miterlimit:10;" d="M184.675,193.543c2.364,0.516,4.792,0.724,7.206,0.617
				c0.657-0.029,1.329-0.085,1.93-0.359"/>
			<path style="fill:none;stroke:#000000;stroke-miterlimit:10;" d="M185.475,171.137c1.754-1.729,3.903-3.034,6.224-3.779"/>
			<path style="fill:none;stroke:#000000;stroke-miterlimit:10;" d="M194.535,181.611c0.654,0.202,1.32,0.384,2.002,0.432
				s1.386-0.046,1.992-0.371"/>
			<path d="M192.39,172.683c0.421,0.827,0.299,1.747-0.273,2.053c-0.572,0.307-1.376-0.116-1.797-0.943s-0.299-1.746,0.273-2.053
				C191.165,171.434,191.969,171.856,192.39,172.683z"/>
		</g>
		<g>
			<g>
				<g>
					<path style="fill:#2D2B3F;" d="M297.505,210.031l-1.237,0.789c-0.167,0.106-0.386,0.054-0.489-0.117l-0.511-0.844
						c-0.104-0.171-0.052-0.396,0.114-0.502l1.237-0.789c0.167-0.106,0.386-0.054,0.489,0.117l0.511,0.845
						C297.723,209.7,297.672,209.925,297.505,210.031z"/>
					<path style="fill:#2D2B3F;" d="M314.994,238.086l0.254,2.045c0.034,0.277-0.259,0.472-0.491,0.326l-1.961-1.143l-17.276-28.718
						l2.174-1.268L314.994,238.086z"/>
					
						<line style="fill:none;stroke:#56616D;stroke-width:0.25;stroke-miterlimit:10;" x1="312.796" y1="239.315" x2="314.994" y2="238.086"/>
					
						<line style="fill:none;stroke:#56616D;stroke-width:0.25;stroke-miterlimit:10;" x1="295.52" y1="210.597" x2="297.694" y2="209.329"/>
				</g>
				<path style="fill:#EF967B;" d="M286.761,247.907c3.555-0.438,6.861-0.749,9.621-2.724c2.76-1.975,4.846-4.77,6.854-7.542
					c-0.378,0.757-0.601,1.954,0.186,2.221c0.219,0.074,0.457,0.037,0.683-0.009c1.627-0.334,3.164-1.124,4.4-2.26
					c0.391-0.359,0.764-0.771,0.926-1.284c0.162-0.513,0.061-1.146-0.36-1.468c0.782-0.171,1.439-0.84,1.612-1.642
					c0.173-0.802-0.146-1.693-0.785-2.188c-0.013-0.061,0.36-0.59,0.398-0.715c0.08-0.265,0.104-0.546,0.084-0.822
					c-0.05-0.677-0.373-1.091-0.768-1.605c0.835,0.265,1.767,0.437,2.56,0.06c0.107-0.051,0.215-0.116,0.272-0.223
					c0.074-0.139,0.041-0.312-0.017-0.459c-0.143-0.363-0.421-0.651-0.706-0.913c-1.051-0.967-2.273-1.715-3.487-2.455
					c-0.511-0.312-1.027-0.626-1.593-0.811c-0.779-0.255-1.605-0.246-2.41-0.152c-0.752,0.088-1.184,0.077-1.184,0.077l-1.04-1.609
					c0,0-5.624,0.076-7.798,1.276c-4.597,2.54-8.516,6.173-12.386,9.77l-8.858,3.48l6.599,15.706L286.761,247.907z"/>
				<path style="fill:none;stroke:#000000;stroke-miterlimit:10;" d="M309.072,234.841c0,0-0.347-1.233-1.814-1.775
					c-1.468-0.541-5.093-0.147-5.093-0.147"/>
				<path style="fill:none;stroke:#000000;stroke-miterlimit:10;" d="M309.9,231.011c0,0-0.885-0.873-2.891-1.185
					c-2.006-0.312-5.291-0.053-5.291-0.053"/>
				<path style="fill:none;stroke:#000000;stroke-miterlimit:10;" d="M309.613,227.869c0,0-2.032-1.161-3.115-1.408
					c-1.083-0.247-5.189-0.11-5.189-0.11"/>
				<line style="fill:none;stroke:#000000;stroke-miterlimit:10;" x1="303.049" y1="222.993" x2="298.095" y2="223.025"/>
				<line style="fill:none;stroke:#000000;stroke-miterlimit:10;" x1="303.237" y1="237.642" x2="306.445" y2="236.198"/>
			</g>
			<polyline style="fill:#2D2B3F;" points="273.338,233.102 280.952,232.164 288.316,253.18 271.823,257.482 			"/>
			<path style="fill:#2D2B3F;" d="M212.998,216.698c2.145,22.016,4.067,44.055,5.767,66.113h-59.606l-8.941-65.352l16.778-17.539
				l31.013,3.478L212.998,216.698z"/>
			<path style="fill:#2D2B3F;" d="M163.686,200.986c0-0.144,3.589-4.907,3.589-4.907s21.981-0.719,27.493,0.809
				c5.512,1.528,10.152,10.336,10.152,10.336L163.686,200.986z"/>
			<path style="fill:#EA5E5E;" d="M194.073,200.986c8.05,1.117,18.791,2.07,24.596,7.902c6.163,6.192,23.182,27.029,23.182,27.029
				l35.651-3.359l7.54,22.563c0,0-14.301,6.423-29.17,9.111c-8.819,1.594-24.529,4.703-36.365-9.088
				c-11.836-13.791-18.866-23.995-18.866-23.995"/>
			<path style="fill:#EA5E5E;" d="M194.768,201.074c0,0-28.792-2.334-36.222-0.362c-7.43,1.972-10.402,5.12-12.817,12.793
				c-2.415,7.673-10.031,53.713-8.545,61.78c1.434,7.785,10.947,17.314,31.758,5.706c20.811-11.608,31.712-18.888,31.712-18.888
				l-8.487-19.294l-29.283,9.456"/>
			<path style="fill:#EA5E5E;" d="M206.073,212.137l-13.027-11.143l-26.051-1.074l-15.945,19.11
				c1.491,26.789,1.263,58.617-2.272,85.965h19.726c0.946,0,1.771-0.662,1.999-1.604l2.39-9.867l0.837,9.547
				c0.096,1.09,0.986,1.925,2.052,1.925h28.505c1.66,0,3.043-1.337,3.185-3.089c0.604-7.469,2.087-27.437,2.527-48.264
				C210.558,227.278,206.073,212.137,206.073,212.137z"/>
			<path style="fill:none;stroke:#000000;stroke-miterlimit:10;" d="M241.852,235.917c0,0-4.017,2.565-5.758,3.242"/>
			<line style="fill:none;stroke:#000000;stroke-miterlimit:10;" x1="281.998" y1="246.008" x2="271.237" y2="248.689"/>
			<line style="fill:none;stroke:#000000;stroke-miterlimit:10;" x1="280.069" y1="249.339" x2="280.872" y2="251.948"/>
			<line style="fill:none;stroke:#000000;stroke-miterlimit:10;" x1="274.489" y1="250.311" x2="275.291" y2="252.92"/>
			<path style="fill:none;stroke:#000000;stroke-miterlimit:10;" d="M150.651,286.366c0.066-0.895,1.854-21.27,2.009-25.376
				c0.155-4.107,0-41.079,0-41.079"/>
			<line style="fill:none;stroke:#000000;stroke-miterlimit:10;" x1="207.853" y1="277.902" x2="200.314" y2="277.902"/>
			<path style="fill:none;stroke:#A34545;stroke-miterlimit:10;" d="M196.532,304.995c0,0,9.403-55.083,8.417-66.901"/>
			<line style="fill:none;stroke:#000000;stroke-miterlimit:10;" x1="210.007" y1="243.618" x2="201.753" y2="232.689"/>
			<path style="fill:none;stroke:#000000;stroke-miterlimit:10;" d="M161.522,275.818c7.624-2.737,14.857-6.622,21.393-11.492"/>
			<path style="fill:none;stroke:#000000;stroke-miterlimit:10;" d="M161.743,269.019c3.146-0.613,6.215-1.639,9.108-3.047"/>
		</g>
		
			<line style="fill:none;stroke:#000000;stroke-width:1.5;stroke-miterlimit:10;" x1="39.982" y1="470.368" x2="460.018" y2="470.368"/>
	</g>
	<g>
		<path style="fill:none;stroke:#6872F0;stroke-width:1.5;stroke-miterlimit:10;" d="M416.246,120.619h-5.819
			c-3.02,0-5.468,2.448-5.468,5.469v5.819c0,3.02,2.448,5.468,5.468,5.468h5.819c3.02,0,5.469-2.448,5.469-5.468v-5.819
			C421.715,123.067,419.266,120.619,416.246,120.619z"/>
		<path style="fill:none;stroke:#6872F0;stroke-width:1.5;stroke-miterlimit:10;" d="M90.105,147.31h-5.819
			c-3.02,0-5.468,2.448-5.468,5.469v5.819c0,3.02,2.448,5.468,5.468,5.468h5.819c3.02,0,5.468-2.448,5.468-5.468v-5.819
			C95.574,149.758,93.125,147.31,90.105,147.31z"/>
		<path style="fill:none;stroke:#6872F0;stroke-width:1.5;stroke-miterlimit:10;" d="M76.891,176.217h-9.787
			c-5.08,0-9.198,4.118-9.198,9.198v9.787c0,5.08,4.118,9.198,9.198,9.198h9.787c5.08,0,9.198-4.118,9.198-9.198v-9.787
			C86.089,180.335,81.97,176.217,76.891,176.217z"/>
		<path style="fill:none;stroke:#6872F0;stroke-width:1.5;stroke-miterlimit:10;" d="M268.596,42.737h-3.489
			c-1.811,0-3.279,1.468-3.279,3.28v3.489c0,1.811,1.468,3.279,3.279,3.279h3.489c1.811,0,3.28-1.468,3.28-3.279v-3.489
			C271.876,44.205,270.408,42.737,268.596,42.737z"/>
		<path style="fill:none;stroke:#6872F0;stroke-width:1.5;stroke-miterlimit:10;" d="M444.66,243.238h-3.489
			c-1.811,0-3.28,1.468-3.28,3.279v3.489c0,1.811,1.468,3.279,3.28,3.279h3.489c1.811,0,3.279-1.468,3.279-3.279v-3.489
			C447.939,244.706,446.471,243.238,444.66,243.238z"/>
		<path style="fill:none;stroke:#6872F0;stroke-width:1.5;stroke-miterlimit:10;" d="M251.538,320.957h-5.577
			c-2.895,0-5.241,2.347-5.241,5.241v5.577c0,2.895,2.347,5.241,5.241,5.241h5.577c2.895,0,5.241-2.347,5.241-5.241v-5.577
			C256.779,323.304,254.432,320.957,251.538,320.957z"/>
		<path style="fill:none;stroke:#6872F0;stroke-width:1.5;stroke-miterlimit:10;" d="M262.616,348.151h-3.757
			c-1.95,0-3.531,1.581-3.531,3.531v3.757c0,1.95,1.581,3.531,3.531,3.531h3.757c1.95,0,3.531-1.581,3.531-3.531v-3.757
			C266.147,349.731,264.566,348.151,262.616,348.151z"/>
		<path style="fill:none;stroke:#6872F0;stroke-width:1.5;stroke-miterlimit:10;" d="M411.284,286.913h-2.958
			c-1.535,0-2.78,1.245-2.78,2.78v2.958c0,1.536,1.245,2.78,2.78,2.78h2.958c1.535,0,2.78-1.245,2.78-2.78v-2.958
			C414.064,288.158,412.819,286.913,411.284,286.913z"/>
		<path style="fill:none;stroke:#6872F0;stroke-width:1.5;stroke-miterlimit:10;" d="M427.396,130.275h-8.334
			c-4.326,0-7.832,3.507-7.832,7.833v8.334c0,4.326,3.507,7.833,7.832,7.833h8.334c4.326,0,7.833-3.507,7.833-7.833v-8.334
			C435.228,133.782,431.721,130.275,427.396,130.275z"/>
		<g>
			
				<line style="fill:none;stroke:#EA5E5E;stroke-width:1.5;stroke-miterlimit:10;" x1="409.227" y1="208.126" x2="412.611" y2="204.742"/>
			
				<line style="fill:none;stroke:#EA5E5E;stroke-width:1.5;stroke-miterlimit:10;" x1="403.465" y1="213.888" x2="406.849" y2="210.504"/>
			
				<line style="fill:none;stroke:#EA5E5E;stroke-width:1.5;stroke-miterlimit:10;" x1="409.227" y1="210.504" x2="412.611" y2="213.888"/>
			
				<line style="fill:none;stroke:#EA5E5E;stroke-width:1.5;stroke-miterlimit:10;" x1="403.465" y1="204.742" x2="406.849" y2="208.126"/>
		</g>
		<g>
			
				<line style="fill:none;stroke:#EA5E5E;stroke-width:1.5;stroke-miterlimit:10;" x1="332.953" y1="60.424" x2="338.039" y2="55.338"/>
			
				<line style="fill:none;stroke:#EA5E5E;stroke-width:1.5;stroke-miterlimit:10;" x1="324.294" y1="69.084" x2="329.38" y2="63.998"/>
			
				<line style="fill:none;stroke:#EA5E5E;stroke-width:1.5;stroke-miterlimit:10;" x1="332.953" y1="63.998" x2="338.039" y2="69.084"/>
			
				<line style="fill:none;stroke:#EA5E5E;stroke-width:1.5;stroke-miterlimit:10;" x1="324.294" y1="55.338" x2="329.38" y2="60.424"/>
		</g>
		<g>
			
				<line style="fill:none;stroke:#EA5E5E;stroke-width:1.5;stroke-miterlimit:10;" x1="168.584" y1="67.959" x2="171.788" y2="64.754"/>
			
				<line style="fill:none;stroke:#EA5E5E;stroke-width:1.5;stroke-miterlimit:10;" x1="163.128" y1="73.414" x2="166.333" y2="70.21"/>
			
				<line style="fill:none;stroke:#EA5E5E;stroke-width:1.5;stroke-miterlimit:10;" x1="168.584" y1="70.21" x2="171.788" y2="73.414"/>
			
				<line style="fill:none;stroke:#EA5E5E;stroke-width:1.5;stroke-miterlimit:10;" x1="163.128" y1="64.754" x2="166.333" y2="67.959"/>
		</g>
		<g>
			
				<line style="fill:none;stroke:#EA5E5E;stroke-width:1.5;stroke-miterlimit:10;" x1="32.357" y1="259.185" x2="35.561" y2="255.981"/>
			
				<line style="fill:none;stroke:#EA5E5E;stroke-width:1.5;stroke-miterlimit:10;" x1="26.901" y1="264.641" x2="30.105" y2="261.437"/>
			
				<line style="fill:none;stroke:#EA5E5E;stroke-width:1.5;stroke-miterlimit:10;" x1="32.357" y1="261.437" x2="35.561" y2="264.641"/>
			
				<line style="fill:none;stroke:#EA5E5E;stroke-width:1.5;stroke-miterlimit:10;" x1="26.901" y1="255.981" x2="30.105" y2="259.185"/>
		</g>
		<g>
			
				<line style="fill:none;stroke:#EA5E5E;stroke-width:1.5;stroke-miterlimit:10;" x1="296.402" y1="313.211" x2="301.043" y2="308.57"/>
			
				<line style="fill:none;stroke:#EA5E5E;stroke-width:1.5;stroke-miterlimit:10;" x1="288.5" y1="321.112" x2="293.141" y2="316.471"/>
			
				<line style="fill:none;stroke:#EA5E5E;stroke-width:1.5;stroke-miterlimit:10;" x1="296.402" y1="316.471" x2="301.043" y2="321.112"/>
			
				<line style="fill:none;stroke:#EA5E5E;stroke-width:1.5;stroke-miterlimit:10;" x1="288.5" y1="308.57" x2="293.141" y2="313.211"/>
		</g>
		<g>
			
				<line style="fill:none;stroke:#EA5E5E;stroke-width:1.5;stroke-miterlimit:10;" x1="260.738" y1="402.478" x2="263.942" y2="399.273"/>
			
				<line style="fill:none;stroke:#EA5E5E;stroke-width:1.5;stroke-miterlimit:10;" x1="255.282" y1="407.933" x2="258.487" y2="404.729"/>
			
				<line style="fill:none;stroke:#EA5E5E;stroke-width:1.5;stroke-miterlimit:10;" x1="260.738" y1="404.729" x2="263.942" y2="407.933"/>
			
				<line style="fill:none;stroke:#EA5E5E;stroke-width:1.5;stroke-miterlimit:10;" x1="255.282" y1="399.273" x2="258.487" y2="402.478"/>
		</g>
	</g>
</g>
</svg>
