<svg width="261" height="227" viewBox="0 0 261 227" fill="none" xmlns="http://www.w3.org/2000/svg">
<g clip-path="url(#clip0_91_2)">
<path d="M24.539 142.983H17.001C11.478 142.983 7.00098 147.46 7.00098 152.983C7.00098 158.506 11.478 162.983 17.001 162.983H24.539C30.062 162.983 34.539 158.506 34.539 152.983C34.539 147.46 30.061 142.983 24.539 142.983Z" fill="url(#paint0_linear_91_2)"/>
<path d="M224.89 120.996L223.92 88.026L223.22 64.336C223.1 60.206 219.71 56.916 215.58 56.916H82.4204C78.7604 56.916 75.6804 59.506 74.9504 62.976H10.3394C5.00738 62.976 0.355382 67.006 0.020382 72.328C-0.345618 78.153 4.26539 82.976 10.0004 82.976H18.7704L90.6704 82.896C96.1904 82.896 100.67 87.376 100.67 92.896C100.67 98.416 96.1904 102.896 90.6704 102.896L40.6704 102.806C40.2204 102.806 39.7804 102.836 39.3504 102.896C34.4504 103.536 30.6704 107.736 30.6704 112.806C30.6704 118.336 35.1404 122.806 40.6704 122.806L78.0604 122.956C83.5904 122.956 88.0604 127.426 88.0604 132.956C88.0604 138.476 83.5904 142.956 78.0604 142.956L50.6664 142.983C44.9234 142.983 40.3114 147.824 40.6884 153.648C41.0324 158.963 45.6834 162.983 51.0094 162.983L67.2664 162.946C72.5994 162.934 77.2604 166.937 77.6424 172.256C77.6604 172.511 77.6704 172.764 77.6704 173.016C77.6704 175.514 76.7544 177.796 75.2404 179.547C72.6854 182.503 71.1944 186.229 71.0794 190.135L70.2294 218.936C70.0994 223.246 73.5594 226.806 77.8694 226.806H220.129C224.439 226.806 227.899 223.246 227.769 218.936L224.89 120.996Z" fill="url(#paint1_linear_91_2)"/>
<path d="M256.606 89.28L224.89 120.996L223.92 88.026L239.636 72.31C244.326 67.62 251.926 67.62 256.606 72.31C261.296 76.99 261.296 84.59 256.606 89.28Z" fill="#F43098"/>
<path d="M224.89 120.996L162.35 183.536C160 185.886 156.93 187.056 153.86 187.056C150.79 187.056 147.72 185.886 145.38 183.536L112.18 150.346C107.5 145.656 107.5 138.066 112.18 133.376C116.87 128.686 124.47 128.686 129.15 133.376L153.86 158.086L223.92 88.026L224.89 120.996Z" fill="white"/>
<path d="M148.282 0C141.548 0 135.123 1.345 129.261 3.78C110.916 11.4 99.2803 29.695 99.2803 49.559L114.602 49.341C114.602 31.211 128.66 15.81 146.773 15.033C147.274 15.012 147.777 15.001 148.283 15.001C148.789 15.001 149.292 15.012 149.793 15.033C167.906 15.811 181.964 31.212 181.964 49.341L197.286 49.559C197.286 29.695 185.649 11.399 167.304 3.78C161.442 1.344 155.017 0 148.282 0Z" fill="#F43098"/>
</g>
<defs>
<linearGradient id="paint0_linear_91_2" x1="7.00098" y1="152.983" x2="34.5386" y2="152.983" gradientUnits="userSpaceOnUse">
<stop stop-color="#605DFF"/>
<stop offset="0.9932" stop-color="#9897D3"/>
</linearGradient>
<linearGradient id="paint1_linear_91_2" x1="0.000381971" y1="141.861" x2="227.774" y2="141.861" gradientUnits="userSpaceOnUse">
<stop stop-color="#605DFF"/>
<stop offset="0.9932" stop-color="#9897D3"/>
</linearGradient>
<clipPath id="clip0_91_2">
<rect width="261" height="227" fill="white"/>
</clipPath>
</defs>
</svg>
